<?xml version="1.0" standalone="no"?>
<!DOCTYPE svg PUBLIC "-//W3C//DTD SVG 20010904//EN"
 "http://www.w3.org/TR/2001/REC-SVG-20010904/DTD/svg10.dtd">
<svg version="1.0" xmlns="http://www.w3.org/2000/svg"
 width="80.000000pt" height="50.000000pt" viewBox="0 0 80.000000 50.000000"
 preserveAspectRatio="xMidYMid meet">

<g transform="translate(0.000000,50.000000) scale(0.100000,-0.100000)"
fill="#000000" stroke="none">
<path d="M365 420 c-4 -6 10 -10 35 -10 143 0 218 -161 125 -267 l-24 -28 -1
98 c0 79 -3 97 -15 97 -11 0 -15 -12 -15 -45 0 -25 -3 -45 -7 -44 -5 0 -22 19
-38 42 -17 23 -38 43 -48 45 -14 3 -17 -4 -17 -42 0 -33 4 -46 14 -46 8 0 16
10 18 21 2 17 14 5 56 -55 29 -42 57 -76 61 -76 10 0 46 40 60 67 14 27 14
103 0 140 -15 40 -48 73 -94 94 -44 20 -100 25 -110 9z"/>
<path d="M278 377 c-35 -35 -58 -88 -58 -132 1 -34 36 -100 69 -128 39 -33
100 -50 147 -41 49 9 36 15 -38 17 -75 2 -110 22 -140 80 -25 49 -21 127 8
172 l19 29 3 -112 3 -112 61 0 c53 0 59 2 48 15 -7 8 -28 15 -46 15 l-33 0 -3
117 -3 117 -37 -37z"/>
<path d="M395 346 l-30 -12 34 -12 c26 -9 43 -9 74 0 l40 12 -34 12 c-43 16
-48 16 -84 0z"/>
</g>
</svg>
